<?xml version="1.0" standalone="no"?>
<!DOCTYPE svg PUBLIC "-//W3C//DTD SVG 20010904//EN"
 "http://www.w3.org/TR/2001/REC-SVG-20010904/DTD/svg10.dtd">
<svg version="1.0" xmlns="http://www.w3.org/2000/svg"
 width="800.000000pt" height="800.000000pt" viewBox="0 0 800.000000 800.000000"
 preserveAspectRatio="xMidYMid meet">

<g transform="translate(0.000000,800.000000) scale(0.100000,-0.100000)"
fill="gold" stroke="none">
<path d="M5010 7416 c-25 -14 -65 -34 -90 -46 -25 -11 -61 -29 -80 -40 -19
-11 -55 -29 -80 -40 -25 -11 -61 -29 -80 -40 -19 -10 -62 -33 -94 -49 -33 -17
-67 -38 -76 -46 -9 -8 -45 -26 -80 -40 -35 -14 -71 -32 -80 -40 -9 -8 -45 -26
-80 -40 -35 -14 -70 -31 -79 -39 -9 -8 -41 -25 -71 -39 -30 -13 -61 -31 -68
-40 -8 -9 -44 -28 -82 -42 -38 -14 -74 -32 -80 -40 -6 -8 -42 -26 -80 -40 -38
-14 -74 -32 -80 -40 -6 -8 -42 -26 -80 -40 -38 -14 -74 -32 -80 -40 -6 -8 -42
-26 -80 -40 -38 -14 -74 -32 -80 -40 -6 -8 -42 -26 -80 -40 -38 -14 -74 -32
-80 -40 -6 -8 -42 -26 -80 -40 -38 -14 -74 -32 -80 -40 -6 -8 -42 -26 -80 -40
-38 -14 -74 -32 -80 -40 -6 -8 -42 -26 -80 -40 -38 -14 -74 -32 -80 -39 -6 -8
-34 -24 -63 -36 -29 -13 -64 -33 -79 -45 -15 -13 -51 -31 -80 -41 -29 -9 -65
-27 -80 -40 -15 -12 -51 -30 -80 -39 -29 -10 -62 -26 -73 -35 -11 -10 -47 -30
-80 -45 -33 -14 -69 -34 -80 -45 -11 -10 -45 -28 -77 -40 -31 -11 -61 -27 -68
-35 -6 -7 -42 -26 -80 -40 -38 -14 -74 -32 -80 -40 -6 -8 -42 -26 -80 -40 -38
-14 -74 -32 -80 -40 -6 -8 -42 -26 -80 -40 -38 -14 -74 -32 -80 -40 -6 -8 -42
-26 -80 -40 -38 -14 -74 -32 -80 -40 -6 -8 -42 -26 -80 -40 -38 -14 -74 -32
-80 -40 -6 -8 -42 -26 -80 -40 -38 -14 -74 -32 -80 -40 -6 -8 -43 -26 -81 -40
-38 -15 -72 -31 -75 -36 -3 -6 -33 -23 -67 -39 -33 -17 -68 -37 -77 -45 -9 -8
-45 -26 -80 -40 -35 -14 -71 -32 -80 -40 -9 -8 -45 -26 -80 -40 -35 -14 -70
-31 -79 -39 -9 -8 -41 -25 -71 -39 -30 -13 -71 -42 -91 -63 -74 -80 -69 4 -69
-1251 l-1 -1126 22 -44 c12 -24 33 -51 47 -61 14 -9 37 -28 51 -42 14 -14 46
-38 71 -53 25 -15 74 -50 110 -77 36 -27 82 -59 102 -70 21 -11 76 -49 122
-84 46 -35 97 -71 115 -80 17 -9 38 -27 47 -40 8 -14 32 -31 52 -39 20 -8 54
-29 76 -46 21 -17 43 -31 47 -31 5 0 28 -17 50 -38 23 -20 56 -46 74 -57 18
-11 65 -42 105 -70 40 -27 89 -61 111 -75 21 -14 46 -33 56 -43 28 -28 123
-94 175 -122 26 -14 52 -33 57 -44 6 -10 28 -25 49 -34 21 -8 57 -31 81 -51
24 -20 47 -36 52 -36 4 0 25 -15 45 -32 20 -18 51 -42 69 -53 18 -11 65 -42
105 -70 40 -27 89 -61 111 -75 21 -14 46 -33 56 -43 28 -28 123 -94 175 -122
26 -14 52 -33 57 -44 6 -10 28 -25 49 -34 21 -8 57 -31 81 -51 24 -20 47 -36
52 -36 5 0 26 -15 46 -34 48 -42 130 -86 163 -86 14 0 37 6 51 14 15 7 49 21
77 30 28 10 56 24 64 33 7 9 45 31 84 49 40 18 75 37 78 43 4 5 32 19 64 31
31 12 66 30 77 40 11 10 45 29 75 43 30 13 63 34 74 45 10 12 40 28 67 37 26
9 59 25 73 36 15 11 54 31 88 45 34 13 73 35 87 48 15 13 43 29 63 35 20 7 42
19 50 28 7 9 45 31 84 49 40 18 75 37 78 43 4 5 32 19 64 31 31 12 66 30 77
40 11 10 45 29 75 43 30 13 63 34 74 45 10 12 40 28 67 37 26 9 59 25 73 36
15 11 54 31 88 45 34 13 73 35 87 48 15 13 43 29 63 35 20 7 42 19 50 28 7 9
45 31 84 49 40 18 75 37 78 43 4 5 32 19 64 31 31 12 66 30 77 40 11 10 45 29
75 43 30 13 63 34 74 45 10 12 40 28 67 37 26 9 59 25 73 36 15 11 54 31 88
45 34 13 73 35 87 48 15 13 43 29 63 35 20 7 42 19 50 28 7 9 45 31 84 49 40
18 75 37 78 43 4 5 32 19 64 31 31 12 66 30 77 40 11 10 43 28 70 40 28 12 61
32 75 45 14 13 50 33 82 45 31 11 61 27 68 35 6 7 42 26 80 40 38 14 74 33 81
42 7 8 38 26 68 40 31 13 65 32 76 43 11 10 43 28 70 40 28 12 57 28 66 36 9
8 44 25 79 39 35 14 71 32 80 40 9 8 44 28 77 45 34 16 64 34 68 40 3 6 35 23
69 39 35 16 66 33 70 39 3 6 37 22 75 37 38 14 75 33 82 42 7 8 38 26 68 40
31 13 65 32 76 43 11 10 45 30 75 45 146 70 173 88 201 140 l28 50 0 1233 1
1232 -31 55 c-26 47 -37 56 -80 70 -27 9 -62 28 -78 41 -16 13 -50 33 -77 44
-27 12 -58 30 -69 40 -11 10 -42 28 -68 39 -26 11 -62 31 -80 45 -18 13 -42
27 -55 31 -13 4 -38 20 -56 35 -18 16 -58 38 -88 50 -31 11 -62 28 -69 36 -7
9 -36 27 -63 41 -28 14 -64 36 -81 48 -16 12 -45 27 -63 33 -33 11 -157 89
-197 122 -11 10 -44 25 -73 35 -29 9 -65 27 -80 40 -15 12 -45 32 -68 43 -22
11 -46 27 -53 36 -7 8 -38 25 -69 36 -30 12 -69 32 -85 46 -16 14 -48 34 -71
46 -22 11 -50 28 -61 38 -11 10 -37 23 -57 29 -20 7 -53 23 -73 37 -20 13 -55
34 -78 45 -23 12 -55 32 -70 45 -15 13 -46 29 -68 35 -22 7 -51 23 -65 36 -14
13 -49 35 -77 49 -29 15 -61 34 -72 43 -11 10 -36 24 -55 31 -19 7 -49 24 -67
37 -18 13 -54 33 -80 44 -26 11 -57 29 -68 39 -58 54 -171 66 -245 26z m159
-287 c28 -6 65 -21 83 -34 18 -13 54 -35 79 -49 25 -13 51 -31 58 -40 7 -8 38
-25 69 -36 30 -12 93 -47 140 -78 102 -69 94 -65 162 -97 76 -36 164 -86 188
-108 11 -10 44 -27 73 -38 29 -11 66 -31 82 -45 16 -14 48 -34 71 -46 22 -11
50 -28 61 -38 11 -9 36 -23 55 -30 19 -7 49 -24 67 -37 18 -13 54 -33 80 -44
26 -11 57 -29 68 -39 11 -10 43 -28 70 -40 28 -12 61 -32 75 -45 14 -13 48
-33 75 -45 28 -12 59 -29 70 -39 11 -10 36 -24 55 -31 19 -8 53 -26 75 -42 43
-30 115 -69 212 -116 34 -17 66 -39 72 -50 6 -12 35 -28 68 -39 47 -16 59 -24
61 -44 5 -42 -49 -94 -128 -124 -38 -15 -73 -31 -76 -36 -3 -6 -33 -23 -67
-39 -33 -17 -68 -36 -77 -45 -8 -8 -36 -23 -61 -34 -25 -11 -58 -30 -72 -41
-15 -12 -55 -32 -89 -46 -33 -13 -68 -30 -77 -38 -9 -9 -42 -26 -73 -40 -31
-14 -59 -30 -63 -36 -3 -6 -37 -26 -73 -46 -37 -19 -83 -44 -102 -54 -19 -11
-55 -29 -80 -40 -66 -31 -150 -77 -190 -105 -19 -13 -51 -31 -70 -39 -19 -8
-47 -24 -63 -36 -15 -12 -55 -32 -89 -46 -33 -13 -68 -30 -77 -38 -9 -9 -42
-26 -73 -40 -31 -14 -59 -30 -63 -36 -3 -6 -37 -26 -73 -46 -37 -19 -83 -44
-102 -54 -19 -11 -55 -29 -80 -40 -66 -31 -150 -77 -190 -105 -19 -13 -51 -31
-70 -39 -19 -8 -47 -24 -63 -36 -15 -12 -55 -32 -89 -46 -33 -13 -68 -30 -77
-38 -9 -9 -42 -26 -73 -40 -31 -14 -59 -30 -63 -36 -3 -6 -37 -26 -73 -46 -37
-19 -83 -44 -102 -54 -19 -11 -55 -29 -80 -40 -68 -32 -152 -78 -183 -101 -15
-11 -49 -29 -75 -40 -26 -11 -56 -29 -68 -40 -11 -10 -47 -30 -80 -42 -32 -13
-76 -35 -97 -50 -21 -14 -50 -28 -65 -32 -15 -3 -41 -17 -57 -31 -17 -15 -55
-37 -85 -51 -30 -13 -64 -32 -75 -43 -11 -10 -46 -28 -77 -40 -32 -12 -60 -26
-64 -31 -3 -6 -39 -25 -79 -44 -40 -18 -76 -38 -80 -44 -4 -7 -30 -22 -58 -35
-29 -12 -58 -30 -65 -39 -8 -9 -44 -28 -82 -42 -38 -14 -74 -33 -80 -40 -7 -8
-37 -24 -68 -35 -32 -12 -66 -30 -77 -40 -57 -51 -164 -67 -216 -32 -14 9 -59
40 -99 67 -40 28 -96 64 -125 80 -29 17 -61 38 -72 47 -10 10 -34 24 -54 32
-19 8 -43 24 -54 37 -11 12 -39 30 -62 41 -23 10 -55 29 -70 42 -15 13 -47 33
-71 45 -24 12 -46 29 -49 38 -3 8 -34 28 -68 43 -35 16 -66 33 -70 39 -3 6
-25 21 -48 32 -23 12 -80 47 -125 78 -46 31 -103 67 -126 81 -23 14 -57 37
-76 51 -19 15 -45 30 -58 34 -13 4 -38 20 -57 36 -18 16 -48 36 -68 44 -19 8
-48 25 -63 38 -16 13 -48 34 -72 46 -24 12 -46 29 -49 38 -3 8 -34 28 -68 43
-35 16 -66 33 -70 39 -3 6 -25 21 -48 32 -23 12 -80 47 -125 78 -46 31 -103
67 -126 81 -23 14 -58 37 -77 53 -20 15 -40 27 -46 27 -17 0 -63 41 -63 56 0
32 71 93 140 119 38 14 74 32 80 40 6 8 42 26 80 40 38 14 74 32 80 40 6 8 42
26 80 40 38 14 74 32 80 40 6 8 42 26 80 40 38 14 74 32 80 40 6 8 42 26 80
40 38 14 74 32 80 40 6 8 42 25 79 40 38 14 78 37 91 50 12 13 35 27 51 30 16
4 45 18 66 32 21 15 65 37 97 49 33 13 67 31 76 39 9 8 45 26 80 40 35 14 73
34 84 44 12 11 46 30 77 44 31 14 59 29 63 35 3 6 37 22 75 37 38 14 75 32 81
40 6 8 42 26 80 40 38 14 74 32 80 40 6 8 42 26 80 40 38 14 74 32 80 40 6 8
42 26 80 40 38 14 74 32 80 40 6 8 42 26 80 40 38 14 74 32 80 40 6 8 42 26
80 40 38 14 74 32 80 40 6 8 42 26 80 40 38 14 74 33 80 40 7 8 37 24 68 35
30 12 68 32 83 44 16 13 50 32 76 42 26 10 60 28 75 40 15 12 51 30 80 39 29
10 62 26 74 36 11 11 49 30 84 44 35 14 73 33 84 44 12 10 43 28 71 40 27 12
57 28 66 37 9 8 44 25 79 39 35 14 71 32 80 40 9 8 45 26 80 40 35 14 71 32
80 40 9 8 45 26 80 40 35 14 71 32 80 40 9 8 45 26 80 40 35 14 71 32 80 40 9
8 45 26 80 40 35 14 71 32 80 40 24 22 109 54 142 55 15 0 50 -5 77 -11z
m2345 -1545 c14 -13 16 -48 16 -229 l0 -213 -42 -37 c-24 -20 -70 -50 -102
-66 -33 -16 -67 -35 -76 -44 -8 -8 -36 -23 -61 -34 -25 -11 -58 -30 -72 -41
-15 -12 -54 -32 -87 -45 -33 -13 -71 -33 -86 -44 -14 -11 -47 -27 -74 -36 -27
-9 -54 -23 -62 -32 -7 -9 -38 -27 -68 -40 -30 -14 -66 -35 -80 -48 -14 -13
-50 -33 -82 -45 -31 -11 -61 -27 -68 -35 -6 -7 -42 -26 -80 -40 -38 -14 -74
-33 -81 -42 -7 -8 -38 -26 -68 -40 -31 -13 -65 -32 -76 -43 -11 -10 -45 -30
-75 -45 -30 -14 -71 -34 -90 -45 -35 -19 -76 -39 -197 -99 -34 -17 -64 -35
-68 -41 -4 -6 -34 -24 -68 -41 -34 -17 -69 -38 -78 -45 -9 -8 -44 -25 -79 -39
-35 -14 -71 -32 -80 -40 -9 -8 -44 -26 -76 -38 -33 -13 -72 -35 -87 -49 -15
-14 -40 -29 -55 -33 -15 -4 -41 -18 -59 -31 -18 -14 -61 -38 -97 -53 -35 -16
-67 -34 -70 -39 -4 -6 -31 -20 -61 -31 -30 -12 -84 -44 -120 -72 -50 -39 -66
-58 -71 -85 -7 -39 8 -83 44 -125 21 -26 30 -29 81 -29 48 0 65 5 110 35 30
18 66 37 80 40 15 3 42 19 61 35 19 17 56 37 81 45 25 9 56 27 69 40 13 13 44
32 71 40 26 9 59 25 73 36 15 11 54 31 88 45 34 13 73 35 87 48 15 13 43 29
64 36 21 6 50 22 65 35 16 13 53 35 83 50 30 14 70 34 89 45 34 18 71 37 190
96 30 15 63 34 74 43 21 19 132 81 196 111 25 11 61 29 80 40 19 10 64 33 100
50 36 17 74 40 85 50 11 11 41 26 65 35 24 9 54 24 65 35 11 10 50 32 86 48
37 17 70 35 73 40 4 6 32 20 64 32 31 12 66 30 77 40 11 10 43 28 70 40 28 12
61 32 75 45 14 13 50 33 81 45 31 11 64 29 74 40 25 27 61 25 80 -4 14 -20 15
-98 13 -644 -3 -707 6 -638 -98 -694 -30 -16 -71 -38 -90 -48 -19 -11 -55 -29
-80 -40 -66 -31 -150 -77 -190 -105 -19 -13 -51 -31 -70 -39 -19 -8 -47 -24
-63 -36 -15 -12 -55 -32 -89 -46 -33 -13 -68 -30 -77 -38 -9 -9 -39 -25 -66
-37 -28 -12 -58 -29 -69 -38 -21 -19 -131 -81 -196 -111 -25 -11 -61 -29 -80
-40 -19 -10 -67 -34 -106 -53 -39 -19 -75 -40 -79 -47 -4 -6 -28 -21 -54 -32
-25 -10 -55 -28 -67 -39 -11 -10 -47 -30 -80 -42 -32 -13 -76 -35 -97 -50 -21
-14 -50 -28 -65 -32 -15 -3 -41 -17 -57 -31 -17 -15 -55 -37 -85 -51 -30 -13
-64 -32 -75 -43 -11 -10 -46 -28 -77 -40 -32 -12 -60 -26 -64 -31 -3 -6 -39
-25 -79 -44 -40 -18 -76 -38 -80 -44 -4 -7 -30 -22 -58 -35 -29 -12 -58 -30
-65 -39 -8 -9 -44 -28 -82 -42 -38 -14 -74 -33 -80 -40 -7 -8 -37 -24 -68 -35
-32 -12 -66 -30 -77 -40 -11 -10 -45 -29 -75 -43 -30 -13 -63 -34 -74 -45 -10
-12 -40 -28 -67 -37 -26 -9 -59 -25 -73 -36 -15 -11 -52 -31 -84 -43 -31 -13
-70 -34 -85 -48 -15 -14 -40 -29 -55 -33 -15 -4 -41 -18 -59 -31 -18 -14 -61
-38 -97 -53 -35 -16 -67 -34 -70 -39 -4 -6 -32 -20 -64 -32 -31 -12 -66 -30
-77 -40 -11 -10 -45 -29 -75 -43 -30 -13 -63 -34 -74 -45 -10 -12 -40 -28 -67
-37 -26 -9 -59 -25 -73 -36 -15 -11 -52 -31 -84 -43 -31 -13 -70 -34 -85 -48
-15 -14 -40 -29 -55 -33 -15 -4 -42 -18 -60 -31 -18 -14 -58 -36 -89 -50 -31
-14 -67 -34 -80 -44 -14 -10 -41 -24 -61 -31 -20 -7 -52 -22 -70 -34 -39 -27
-65 -23 -81 11 -12 27 -16 2018 -5 2062 5 15 26 33 65 52 31 16 60 34 63 39 4
5 32 19 64 31 31 12 66 30 77 40 11 10 45 29 75 43 30 13 63 34 74 45 10 12
40 28 67 37 26 9 59 25 73 36 15 11 54 31 88 45 34 13 73 35 87 48 15 13 43
29 63 35 20 7 42 19 50 28 7 9 45 31 84 49 40 18 75 37 78 43 4 5 32 19 64 31
31 12 66 30 77 40 11 10 43 28 70 40 28 12 61 32 75 45 14 13 50 33 82 45 31
11 61 27 68 35 6 7 42 26 80 40 38 14 74 33 81 42 7 8 38 26 68 40 31 13 65
32 76 43 11 10 43 28 70 40 28 12 57 28 66 36 9 8 44 25 79 39 35 14 71 32 80
40 9 8 44 28 77 45 34 16 64 34 68 40 3 6 35 23 69 39 35 16 66 33 70 39 3 6
37 22 75 37 38 14 75 33 82 42 7 8 38 26 68 40 31 13 65 32 76 43 11 10 45 30
75 45 30 14 71 34 90 45 35 19 76 39 197 99 34 17 64 35 68 41 4 6 37 26 73
46 37 19 83 44 102 54 19 11 55 29 80 40 66 31 150 77 190 105 19 13 51 31 70
39 19 8 47 24 63 36 15 12 55 32 89 46 33 13 68 30 77 38 9 9 42 26 73 40 31
14 59 30 63 36 3 6 37 26 73 46 37 19 83 44 102 54 19 11 55 29 80 40 78 37
172 90 202 115 34 29 69 32 92 9z m-6941 -1015 c23 -12 53 -32 67 -45 14 -12
41 -30 61 -38 20 -8 50 -26 65 -39 16 -13 48 -34 72 -46 24 -12 46 -29 49 -38
3 -8 34 -28 68 -43 35 -16 66 -33 70 -39 3 -6 25 -21 48 -32 23 -12 79 -47
125 -78 46 -31 105 -69 131 -86 87 -54 146 -93 173 -115 15 -11 47 -30 72 -41
25 -11 58 -30 73 -43 15 -13 47 -33 70 -45 23 -11 47 -30 52 -40 6 -10 28 -26
49 -34 21 -9 52 -27 69 -41 17 -14 50 -35 74 -46 24 -11 65 -35 90 -53 26 -18
61 -41 79 -52 59 -35 125 -79 199 -130 40 -27 96 -62 123 -77 28 -15 61 -36
72 -47 12 -10 39 -26 61 -36 22 -9 51 -27 65 -40 14 -14 40 -38 58 -54 l32
-29 0 -1002 c0 -671 -3 -1008 -10 -1021 -21 -39 -68 -25 -167 50 -50 38 -105
77 -122 85 -17 9 -38 27 -47 40 -8 14 -32 31 -52 39 -20 8 -54 29 -76 46 -21
17 -43 31 -47 31 -5 0 -28 17 -50 38 -23 20 -56 46 -74 57 -18 11 -65 43 -105
70 -40 28 -91 62 -113 77 -23 15 -46 33 -52 41 -11 15 -101 76 -173 119 -25
14 -53 35 -61 47 -9 11 -32 27 -52 35 -20 8 -55 31 -78 50 -24 20 -47 36 -52
36 -4 0 -25 15 -45 32 -20 18 -52 42 -69 53 -18 11 -65 43 -105 70 -40 28 -91
62 -114 77 -22 15 -45 33 -51 41 -11 15 -101 76 -173 119 -25 14 -53 35 -61
47 -9 11 -33 27 -53 36 -21 8 -52 28 -70 44 -18 15 -46 36 -63 44 -16 9 -52
37 -80 61 l-50 45 -3 125 c-2 78 1 132 8 145 16 30 70 28 99 -3 13 -13 44 -33
70 -45 26 -11 56 -30 66 -42 11 -12 39 -30 62 -41 23 -10 55 -29 70 -42 15
-13 47 -33 71 -45 24 -12 46 -29 49 -38 3 -8 34 -28 68 -43 35 -16 66 -33 70
-39 3 -6 25 -21 48 -32 23 -12 79 -47 125 -78 45 -31 102 -67 126 -81 24 -14
53 -33 63 -42 72 -65 211 -63 257 4 37 53 4 141 -69 184 -16 9 -41 27 -55 40
-14 13 -41 30 -61 38 -20 8 -50 26 -65 39 -16 13 -48 34 -71 46 -23 11 -47 29
-52 40 -6 10 -25 24 -43 31 -18 8 -53 27 -78 45 -25 17 -61 39 -80 48 -19 10
-56 32 -81 50 -26 18 -61 41 -79 52 -59 35 -125 79 -200 130 -40 28 -95 62
-123 77 -28 15 -60 36 -71 47 -12 11 -40 27 -64 37 -28 10 -47 26 -53 41 -5
14 -9 283 -9 626 0 529 2 605 16 625 19 27 34 28 87 1z"/>
<path d="M4485 6488 c-85 -31 -133 -68 -166 -128 -10 -19 -29 -48 -42 -63 -20
-26 -22 -39 -22 -150 0 -112 3 -128 29 -186 15 -35 32 -92 37 -125 6 -33 23
-83 38 -111 16 -27 36 -75 45 -105 9 -30 29 -74 45 -97 16 -24 32 -63 36 -90
3 -27 21 -77 38 -113 27 -56 32 -78 35 -155 4 -113 -4 -126 -81 -133 -44 -3
-63 0 -89 16 -34 22 -130 126 -159 172 -9 15 -27 38 -40 52 -13 14 -41 47 -62
74 -21 27 -54 69 -74 94 -20 25 -47 63 -61 85 -14 22 -34 50 -46 61 -12 12
-48 54 -81 93 -33 39 -65 71 -71 71 -7 0 -35 18 -64 39 -39 30 -74 45 -139 61
-84 21 -90 21 -151 5 -80 -21 -140 -45 -140 -56 0 -5 -18 -20 -39 -35 -35 -22
-43 -37 -75 -125 -41 -115 -44 -154 -16 -259 11 -41 27 -109 36 -150 9 -40 25
-92 36 -114 11 -22 29 -65 40 -95 10 -31 30 -72 44 -93 14 -20 33 -67 41 -105
9 -37 26 -87 39 -109 25 -42 54 -177 54 -247 0 -55 -45 -99 -92 -91 -68 13
-96 33 -176 125 -45 52 -97 110 -115 129 -19 19 -40 46 -47 60 -7 14 -39 57
-71 96 -31 40 -69 89 -82 110 -36 56 -180 200 -240 241 -74 50 -107 62 -189
69 -111 10 -181 -8 -236 -61 -41 -38 -45 -46 -45 -87 1 -60 14 -81 62 -103 35
-15 50 -16 102 -8 107 17 121 10 250 -122 112 -114 125 -130 214 -262 19 -29
45 -63 58 -76 12 -14 45 -53 72 -88 86 -108 187 -200 293 -264 61 -37 66 -38
157 -39 80 -1 97 2 122 20 16 12 47 31 69 42 51 26 98 79 114 128 7 20 22 53
34 73 28 47 27 151 -2 247 -11 38 -28 100 -36 137 -9 38 -27 87 -40 110 -13
23 -32 67 -41 97 -10 30 -28 75 -40 100 -13 25 -30 69 -39 98 -8 30 -24 68
-35 86 -54 88 -73 304 -30 347 30 30 95 22 145 -17 51 -41 141 -132 170 -174
13 -19 47 -64 74 -100 28 -36 58 -78 68 -95 9 -16 32 -44 50 -61 18 -17 45
-51 61 -75 58 -91 222 -238 290 -260 20 -7 57 -23 84 -37 40 -21 55 -23 101
-18 78 10 185 65 244 125 44 45 52 59 71 135 11 47 21 101 21 119 0 66 -52
282 -86 358 -19 42 -34 85 -34 96 0 11 -15 49 -34 84 -18 35 -39 82 -46 104
-7 22 -23 61 -36 86 -34 68 -78 267 -70 314 14 74 79 106 137 67 74 -49 129
-96 153 -129 14 -21 48 -65 76 -98 28 -33 62 -78 77 -100 14 -22 30 -41 34
-43 5 -2 18 -20 30 -40 12 -20 35 -50 50 -67 16 -16 62 -68 102 -114 99 -116
181 -177 281 -212 101 -35 143 -36 228 -3 120 46 160 123 101 196 -49 59 -50
59 -150 53 -75 -5 -99 -3 -128 11 -42 19 -183 167 -230 239 -18 28 -43 59 -55
70 -12 11 -28 32 -36 47 -7 14 -19 32 -27 40 -7 7 -26 31 -42 53 -28 38 -81
102 -129 155 -12 14 -31 38 -41 53 -10 15 -31 35 -46 43 -16 8 -44 28 -63 45
-40 35 -192 90 -245 88 -20 -1 -72 -15 -116 -31z"/>
<path d="M5852 3355 c-24 -7 -60 -25 -80 -39 -20 -13 -63 -34 -94 -46 -32 -12
-60 -26 -64 -31 -3 -6 -39 -25 -79 -44 -40 -18 -76 -38 -80 -45 -4 -6 -28 -21
-54 -32 -25 -10 -55 -28 -67 -39 -11 -10 -47 -30 -80 -42 -32 -13 -76 -35 -97
-50 -21 -14 -50 -28 -65 -32 -15 -3 -41 -17 -57 -31 -17 -15 -55 -37 -85 -51
-30 -13 -64 -32 -75 -43 -11 -10 -46 -28 -77 -40 -32 -12 -60 -26 -64 -31 -3
-6 -38 -25 -78 -43 -39 -18 -77 -40 -84 -49 -8 -9 -30 -21 -50 -28 -20 -6 -51
-22 -69 -36 -18 -13 -61 -37 -97 -52 -35 -16 -67 -34 -70 -39 -4 -6 -32 -20
-64 -32 -31 -12 -66 -30 -77 -40 -11 -10 -45 -29 -75 -43 -30 -13 -63 -34 -74
-45 -10 -12 -40 -28 -67 -37 -26 -9 -59 -25 -73 -36 -15 -11 -52 -31 -84 -43
-31 -13 -70 -34 -85 -48 -15 -14 -40 -29 -55 -33 -15 -4 -42 -18 -60 -31 -18
-14 -52 -34 -75 -44 -53 -24 -107 -88 -107 -127 0 -33 39 -91 73 -110 49 -27
174 -3 217 41 12 14 44 33 71 41 26 9 59 25 73 36 15 11 54 31 88 45 34 13 73
35 87 48 15 13 43 29 63 35 20 7 42 19 50 28 7 9 45 31 84 49 40 18 75 37 78
43 4 5 32 19 64 31 31 12 66 30 77 40 11 10 45 29 75 43 30 13 63 34 74 45 10
12 40 28 67 37 26 9 59 25 73 36 15 11 54 31 88 45 34 13 73 35 87 48 15 13
43 29 63 35 20 7 42 19 50 28 7 9 45 31 84 49 40 18 75 37 78 43 4 5 32 19 64
31 31 12 66 30 77 40 11 10 43 28 70 40 28 12 61 32 75 45 14 13 50 33 82 45
31 11 61 27 68 35 6 7 42 25 79 40 38 14 78 37 91 50 12 13 36 27 51 30 16 4
42 17 57 30 15 13 50 34 77 47 52 24 95 81 95 126 0 41 -30 90 -65 106 -39 19
-65 19 -123 1z"/>
<path d="M1390 3357 c-14 -7 -36 -34 -50 -60 l-25 -47 30 -56 c17 -32 42 -62
58 -70 15 -9 36 -23 47 -34 21 -21 111 -82 178 -122 25 -14 53 -35 61 -47 9
-11 32 -27 52 -35 20 -8 50 -26 65 -39 16 -13 48 -34 71 -46 23 -11 47 -30 52
-40 6 -10 28 -26 49 -34 21 -9 52 -26 68 -40 16 -13 45 -32 64 -42 19 -9 46
-28 60 -42 25 -25 92 -71 154 -105 44 -25 126 -24 160 3 31 25 56 69 56 100 0
50 -75 125 -196 199 -23 14 -74 48 -114 75 -40 28 -94 64 -120 80 -26 17 -80
53 -120 80 -40 28 -90 61 -111 75 -21 14 -46 33 -56 43 -16 16 -77 56 -158
104 -16 10 -45 33 -63 52 -51 52 -156 76 -212 48z"/>
</g>
</svg>
