<?xml version="1.0" standalone="no"?>
<!DOCTYPE svg PUBLIC "-//W3C//DTD SVG 20010904//EN"
 "http://www.w3.org/TR/2001/REC-SVG-20010904/DTD/svg10.dtd">
<svg version="1.0" xmlns="http://www.w3.org/2000/svg"
 width="225.000000pt" height="225.000000pt" viewBox="0 0 225.000000 225.000000"
 preserveAspectRatio="xMidYMid meet">

<g transform="translate(0.000000,225.000000) scale(0.100000,-0.100000)"
fill="gold" stroke="none">
<path d="M1025 1929 c-409 -51 -715 -395 -715 -804 0 -245 116 -484 305 -632
354 -278 861 -221 1139 128 354 445 145 1117 -399 1278 -61 18 -220 43 -250
40 -5 -1 -41 -5 -80 -10z m335 -128 c213 -78 368 -239 448 -464 22 -64 25 -88
25 -212 0 -124 -3 -148 -25 -212 -79 -225 -233 -384 -448 -465 -82 -31 -90
-32 -240 -32 -150 0 -158 1 -239 32 -114 43 -197 99 -286 194 -82 87 -142 194
-172 308 -23 88 -23 262 0 350 58 220 233 417 442 496 100 37 144 43 285 40
110 -3 135 -8 210 -35z"/>
<path d="M1080 1527 l0 -54 -40 -12 c-80 -24 -140 -99 -140 -175 0 -85 40
-130 175 -198 121 -61 145 -81 145 -123 0 -77 -106 -107 -229 -65 -35 11 -64
20 -66 18 -6 -8 -25 -73 -25 -85 0 -19 79 -53 129 -56 l41 -2 0 -51 0 -52 45
-4 44 -3 3 58 c3 59 3 59 42 72 88 31 139 100 138 190 -1 97 -48 150 -181 205
-81 34 -131 74 -131 107 0 8 13 28 29 44 25 24 38 29 78 29 27 0 73 -7 102
-16 29 -8 54 -14 55 -12 5 6 26 86 26 95 0 11 -110 45 -132 41 -9 -2 -14 12
-16 50 l-3 52 -45 0 -44 0 0 -53z"/>
</g>
</svg>
