<?xml version="1.0" standalone="no"?>
<!DOCTYPE svg PUBLIC "-//W3C//DTD SVG 20010904//EN"
 "http://www.w3.org/TR/2001/REC-SVG-20010904/DTD/svg10.dtd">
<svg version="1.0" xmlns="http://www.w3.org/2000/svg"
 width="37.000000pt" height="37.000000pt" viewBox="0 0 37.000000 37.000000"
 preserveAspectRatio="xMidYMid meet">

<g transform="translate(0.000000,37.000000) scale(0.100000,-0.100000)"
fill="gold" stroke="none">
<path d="M60 352 c-45 -22 -59 -62 -59 -167 0 -161 29 -188 201 -183 102 3
109 5 135 31 27 26 28 32 31 140 3 128 -5 153 -58 179 -49 25 -201 25 -250 0z
m257 -35 c15 -14 19 -38 21 -125 3 -96 1 -111 -16 -132 -18 -22 -29 -25 -106
-29 -119 -4 -152 3 -171 39 -18 34 -21 171 -4 217 15 44 41 53 156 50 83 -2
106 -5 120 -20z"/>
<path d="M266 291 c-3 -5 0 -14 8 -20 10 -8 16 -8 25 2 6 8 8 17 4 20 -9 10
-31 9 -37 -2z"/>
<path d="M138 263 c-102 -64 -15 -214 91 -157 64 35 64 126 0 159 -36 19 -58
18 -91 -2z m89 -35 c28 -26 30 -61 3 -88 -28 -28 -64 -25 -89 6 -27 34 -26 50
4 79 30 31 52 31 82 3z"/>
</g>
</svg>
