<?xml version="1.0" standalone="no"?>
<!DOCTYPE svg PUBLIC "-//W3C//DTD SVG 20010904//EN"
 "http://www.w3.org/TR/2001/REC-SVG-20010904/DTD/svg10.dtd">
<svg version="1.0" xmlns="http://www.w3.org/2000/svg"
 width="215.000000pt" height="234.000000pt" viewBox="0 0 215.000000 234.000000"
 preserveAspectRatio="xMidYMid meet">

<g transform="translate(0.000000,234.000000) scale(0.100000,-0.100000)"
fill="gold" stroke="none">
<path d="M996 2330 c-75 -23 -140 -99 -152 -177 -6 -39 -2 -66 21 -139 6 -18
0 -22 -45 -32 -217 -50 -446 -223 -606 -457 -73 -107 -94 -153 -94 -209 0 -93
49 -102 201 -37 128 54 198 71 291 71 92 0 166 -23 243 -74 107 -71 155 -90
226 -91 70 0 64 -2 287 115 77 41 88 44 175 48 98 4 155 -10 302 -72 34 -14
79 -28 102 -32 89 -14 108 69 44 196 -130 257 -386 468 -656 541 -44 12 -81
22 -82 23 -1 1 5 26 14 55 23 81 6 148 -55 211 -62 64 -135 84 -216 60z"/>
<path d="M505 1176 c-81 -26 -195 -78 -195 -89 1 -7 65 -253 143 -547 l143
-535 77 -3 78 -3 -6 33 c-3 18 -37 271 -75 563 -38 292 -72 545 -75 563 -7 36
-22 40 -90 18z"/>
<path d="M1556 1159 c-3 -13 -37 -265 -76 -559 -38 -294 -72 -550 -75 -568
l-6 -33 78 3 77 3 143 535 c78 294 142 542 143 552 0 20 -139 73 -222 83 -54
7 -57 6 -62 -16z"/>
<path d="M700 1157 c0 -7 34 -266 75 -574 41 -309 75 -567 75 -572 0 -7 33
-11 90 -11 l90 0 0 505 0 505 -37 15 c-20 9 -66 34 -102 57 -70 44 -159 88
-178 88 -7 0 -13 -6 -13 -13z"/>
<path d="M1325 1093 c-60 -31 -128 -62 -150 -68 l-40 -12 -3 -507 -2 -506 85
0 c47 0 85 4 85 9 0 11 137 1047 146 1104 3 20 2 37 -3 37 -4 0 -57 -26 -118
-57z"/>
<path d="M2070 1110 c-19 -10 -56 -22 -82 -25 -27 -4 -48 -8 -48 -10 0 -2 -63
-241 -140 -532 -77 -290 -139 -531 -137 -536 1 -4 26 4 54 19 96 47 104 65
273 593 82 260 150 478 150 485 0 8 -7 17 -16 20 -19 7 -12 9 -54 -14z"/>
<path d="M13 1104 c-3 -8 64 -231 148 -495 171 -533 173 -539 273 -585 28 -13
52 -22 54 -19 3 3 -219 852 -264 1012 -14 49 -17 52 -56 58 -23 4 -66 16 -95
26 -47 16 -55 16 -60 3z"/>
</g>
</svg>
