<?xml version="1.0" standalone="no"?>
<!DOCTYPE svg PUBLIC "-//W3C//DTD SVG 20010904//EN"
 "http://www.w3.org/TR/2001/REC-SVG-20010904/DTD/svg10.dtd">
<svg version="1.0" xmlns="http://www.w3.org/2000/svg"
 width="36.000000pt" height="36.000000pt" viewBox="0 0 36.000000 36.000000"
 preserveAspectRatio="xMidYMid meet">

<g transform="translate(0.000000,36.000000) scale(0.100000,-0.100000)"
fill="gold" stroke="none">
<path d="M25 335 c-24 -23 -25 -30 -25 -149 0 -68 3 -132 6 -141 13 -33 59
-45 179 -45 115 0 117 0 146 29 29 29 29 31 29 146 0 120 -12 166 -45 179 -9
3 -73 6 -141 6 -119 0 -126 -1 -149 -25z m287 -22 c15 -14 18 -32 18 -131 0
-154 2 -152 -148 -152 -155 0 -152 -3 -152 155 0 81 4 125 12 133 8 8 52 12
132 12 97 0 123 -3 138 -17z"/>
<path d="M165 233 c-114 -45 -114 -45 -65 -58 19 -4 40 4 88 34 34 22 62 38
62 34 0 -4 -22 -28 -50 -53 -33 -30 -50 -54 -50 -70 0 -22 1 -22 18 -6 18 15
21 15 45 -4 15 -12 31 -19 36 -16 4 3 14 34 20 68 7 35 15 73 18 86 7 30 -12
28 -122 -15z"/>
</g>
</svg>
