<?xml version="1.0" standalone="no"?>
<!DOCTYPE svg PUBLIC "-//W3C//DTD SVG 20010904//EN"
 "http://www.w3.org/TR/2001/REC-SVG-20010904/DTD/svg10.dtd">
<svg version="1.0" xmlns="http://www.w3.org/2000/svg"
 width="224.000000pt" height="224.000000pt" viewBox="0 0 224.000000 224.000000"
 preserveAspectRatio="xMidYMid meet">

<g transform="translate(0.000000,224.000000) scale(0.100000,-0.100000)"
fill="gold" stroke="none">
<path d="M1188 1884 c-175 -42 -327 -177 -395 -350 -23 -60 -27 -84 -27 -184
-1 -143 5 -170 40 -170 24 0 25 2 17 33 -4 17 -8 79 -8 137 0 129 22 194 98
295 161 213 466 273 697 138 239 -140 326 -442 195 -679 -19 -36 -35 -67 -35
-70 0 -3 12 -4 28 -2 31 3 70 65 99 158 27 87 23 237 -9 326 -64 181 -216 320
-403 369 -73 18 -219 18 -297 -1z"/>
<path d="M1307 1784 c-4 -4 -7 -31 -7 -60 0 -42 4 -55 19 -64 39 -20 52 -3 49
64 -3 57 -5 61 -28 64 -14 2 -29 0 -33 -4z"/>
<path d="M1013 1633 c-4 -11 7 -28 36 -56 39 -36 44 -38 59 -23 15 15 13 19
-23 56 -42 43 -62 50 -72 23z"/>
<path d="M1490 1526 c-93 -84 -149 -126 -164 -126 -47 0 -73 -62 -40 -94 33
-33 77 -15 92 37 4 13 69 79 145 146 129 116 153 147 120 158 -6 2 -75 -52
-153 -121z"/>
<path d="M35 1348 c-3 -7 -4 -215 -3 -463 l3 -450 174 0 175 0 10 49 c6 27 16
51 22 53 15 5 527 -104 609 -129 90 -29 230 -31 292 -6 24 10 107 55 185 101
79 46 204 116 278 157 145 78 289 165 357 213 76 54 93 142 36 187 -48 37 -87
28 -276 -67 -94 -47 -221 -108 -282 -134 l-109 -47 -22 23 c-46 50 -79 59
-224 59 -124 1 -139 3 -190 27 -30 15 -91 59 -134 99 -97 89 -164 122 -262
128 l-71 4 1 40 c1 52 -19 68 -124 99 -64 18 -84 28 -91 46 -8 23 -11 23 -179
23 -127 0 -172 -3 -175 -12z m315 -453 l0 -425 -140 0 -140 0 0 425 0 425 140
0 140 0 0 -425z m130 354 c38 -11 74 -27 80 -34 8 -10 -9 -77 -71 -277 -46
-145 -86 -267 -91 -272 -4 -6 -8 128 -8 297 0 216 3 307 11 307 6 0 42 -9 79
-21z m277 -164 c35 -10 72 -35 127 -82 166 -146 193 -157 381 -158 120 0 133
-2 163 -23 18 -13 41 -41 52 -62 19 -36 19 -39 2 -44 -46 -14 -264 -37 -355
-38 -116 -1 -183 17 -262 72 -37 25 -49 29 -60 20 -25 -21 1 -47 92 -92 l87
-43 150 0 c145 1 370 26 408 46 13 7 15 15 8 36 -4 16 -9 34 -11 41 -3 9 34
30 106 61 61 26 139 62 174 80 76 39 124 37 144 -6 9 -21 8 -31 -8 -60 -17
-29 -49 -51 -185 -125 -91 -49 -228 -126 -304 -170 -76 -45 -155 -87 -175 -94
-57 -21 -158 -17 -247 9 -43 13 -196 48 -339 77 -143 29 -264 57 -269 61 -8 7
14 87 110 396 24 77 40 113 52 117 25 7 102 -2 159 -19z m1381 -61 c26 -18 29
-54 5 -82 -20 -23 -102 -82 -114 -82 -4 0 -11 14 -14 32 -4 17 -18 41 -32 54
l-25 23 69 35 c79 41 81 41 111 20z"/>
<path d="M907 1354 c-15 -16 8 -24 69 -24 48 0 65 3 62 13 -5 13 -119 23 -131
11z"/>
<path d="M1677 1354 c-18 -18 -2 -24 64 -24 52 0 70 3 67 13 -5 13 -119 23
-131 11z"/>
</g>
</svg>
